<svg width="78" height="24" viewBox="0 0 78 24" fill="none" xmlns="http://www.w3.org/2000/svg">
<path d="M1.25016 19.5V7.13636H3.86415V17.3448H9.16458V19.5H1.25016ZM13.0847 7.13636V19.5H10.4707V7.13636H13.0847ZM17.044 7.13636L20.0323 16.5298H20.147L23.1413 7.13636H26.039L21.7769 19.5H18.4083L14.1402 7.13636H17.044ZM27.1021 19.5V7.13636H35.4331V9.29155H29.7161V12.2376H35.0045V14.3928H29.7161V17.3448H35.4572V19.5H27.1021ZM40.5959 19.5V7.13636H43.2099V12.2376H48.5163V7.13636H51.1243V19.5H48.5163V14.3928H43.2099V19.5H40.5959ZM55.4684 7.13636V19.5H52.8545V7.13636H55.4684ZM57.1941 19.5V7.13636H59.8081V12.5877H59.9711L64.4203 7.13636H67.5535L62.9654 12.6722L67.6078 19.5H64.4807L61.094 14.4169L59.8081 15.9865V19.5H57.1941ZM68.4898 19.5V7.13636H76.8208V9.29155H71.1038V12.2376H76.3922V14.3928H71.1038V17.3448H76.8449V19.5H68.4898Z" fill="white"/>
<circle cx="12" cy="2.99999" r="1.10526" fill="#B81111"/>
<path d="M12 0C13.6569 0 15 1.34315 15 3C15 4.65685 13.6569 6 12 6C10.3431 6 9 4.65685 9 3C9 1.34315 10.3431 0 12 0ZM12 0.947266C10.8664 0.947266 9.94727 1.86636 9.94727 3C9.94727 4.13364 10.8664 5.05273 12 5.05273C13.1336 5.05273 14.0527 4.13364 14.0527 3C14.0527 1.86636 13.1336 0.947266 12 0.947266Z" fill="#C81919"/>
<circle cx="54" cy="2.99999" r="1.10526" fill="#B81111"/>
<path d="M54 0C55.6569 0 57 1.34315 57 3C57 4.65685 55.6569 6 54 6C52.3431 6 51 4.65685 51 3C51 1.34315 52.3431 0 54 0ZM54 0.947266C52.8664 0.947266 51.9473 1.86636 51.9473 3C51.9473 4.13364 52.8664 5.05273 54 5.05273C55.1336 5.05273 56.0527 4.13364 56.0527 3C56.0527 1.86636 55.1336 0.947266 54 0.947266Z" fill="#C81919"/>
</svg>
